<svg xmlns="http://www.w3.org/2000/svg" xmlns:xlink="http://www.w3.org/1999/xlink" width="400" zoomAndPan="magnify" viewBox="0 0 300 49.499998" height="66" preserveAspectRatio="xMidYMid meet" version="1.0"><defs><filter x="0%" y="0%" width="100%" height="100%" id="4a85609144"><feColorMatrix values="0 0 0 0 1 0 0 0 0 1 0 0 0 0 1 0 0 0 1 0" color-interpolation-filters="sRGB"/></filter><g/><clipPath id="1fc6e4232c"><path d="M 4.914062 11.507812 L 20 11.507812 L 20 37.496094 L 4.914062 37.496094 Z M 4.914062 11.507812 " clip-rule="nonzero"/></clipPath><clipPath id="ff20927ff9"><path d="M 14 11.507812 L 30.160156 11.507812 L 30.160156 37.496094 L 14 37.496094 Z M 14 11.507812 " clip-rule="nonzero"/></clipPath><clipPath id="c87ec5ff9e"><path d="M 1.5 0 L 298.5 0 L 298.5 49.003906 L 1.5 49.003906 Z M 1.5 0 " clip-rule="nonzero"/></clipPath><clipPath id="ce92bfc8fa"><path d="M 0.5 0 L 297.5 0 L 297.5 49.003906 L 0.5 49.003906 Z M 0.5 0 " clip-rule="nonzero"/></clipPath><clipPath id="8d7e9c40aa"><path d="M 0.523438 0 L 297.5 0 L 297.5 49.003906 L 0.523438 49.003906 Z M 0.523438 0 " clip-rule="nonzero"/></clipPath><linearGradient x1="-46.011002" gradientTransform="matrix(0.742494, 0, 0, 0.740766, 34.686921, 11.17184)" y1="17" x2="353.959662" gradientUnits="userSpaceOnUse" y2="17" id="76ff4b6948"><stop stop-opacity="1" stop-color="rgb(1.179504%, 7.449341%, 86.669922%)" offset="0"/><stop stop-opacity="1" stop-color="rgb(1.179504%, 7.449341%, 86.669922%)" offset="0.125"/><stop stop-opacity="1" stop-color="rgb(1.170349%, 7.722473%, 86.711121%)" offset="0.128906"/><stop stop-opacity="1" stop-color="rgb(1.16272%, 7.995605%, 86.753845%)" offset="0.132812"/><stop stop-opacity="1" stop-color="rgb(1.152039%, 8.343506%, 86.807251%)" offset="0.136719"/><stop stop-opacity="1" stop-color="rgb(1.141357%, 8.691406%, 86.860657%)" offset="0.140625"/><stop stop-opacity="1" stop-color="rgb(1.12915%, 9.039307%, 86.914062%)" offset="0.144531"/><stop stop-opacity="1" stop-color="rgb(1.118469%, 9.387207%, 86.968994%)" offset="0.148438"/><stop stop-opacity="1" stop-color="rgb(1.107788%, 9.735107%, 87.0224%)" offset="0.152344"/><stop stop-opacity="1" stop-color="rgb(1.097107%, 10.083008%, 87.075806%)" offset="0.15625"/><stop stop-opacity="1" stop-color="rgb(1.086426%, 10.430908%, 87.129211%)" offset="0.160156"/><stop stop-opacity="1" stop-color="rgb(1.075745%, 10.778809%, 87.184143%)" offset="0.164062"/><stop stop-opacity="1" stop-color="rgb(1.065063%, 11.126709%, 87.237549%)" offset="0.167969"/><stop stop-opacity="1" stop-color="rgb(1.054382%, 11.474609%, 87.290955%)" offset="0.171875"/><stop stop-opacity="1" stop-color="rgb(1.043701%, 11.82251%, 87.34436%)" offset="0.175781"/><stop stop-opacity="1" stop-color="rgb(1.03302%, 12.17041%, 87.399292%)" offset="0.179687"/><stop stop-opacity="1" stop-color="rgb(1.022339%, 12.518311%, 87.452698%)" offset="0.183594"/><stop stop-opacity="1" stop-color="rgb(1.011658%, 12.866211%, 87.506104%)" offset="0.1875"/><stop stop-opacity="1" stop-color="rgb(1.000977%, 13.214111%, 87.559509%)" offset="0.191406"/><stop stop-opacity="1" stop-color="rgb(0.990295%, 13.562012%, 87.614441%)" offset="0.195312"/><stop stop-opacity="1" stop-color="rgb(0.978088%, 13.909912%, 87.667847%)" offset="0.199219"/><stop stop-opacity="1" stop-color="rgb(0.967407%, 14.257812%, 87.721252%)" offset="0.203125"/><stop stop-opacity="1" stop-color="rgb(0.956726%, 14.605713%, 87.774658%)" offset="0.207031"/><stop stop-opacity="1" stop-color="rgb(0.946045%, 14.953613%, 87.82959%)" offset="0.210938"/><stop stop-opacity="1" stop-color="rgb(0.935364%, 15.301514%, 87.882996%)" offset="0.214844"/><stop stop-opacity="1" stop-color="rgb(0.924683%, 15.649414%, 87.936401%)" offset="0.21875"/><stop stop-opacity="1" stop-color="rgb(0.914001%, 15.997314%, 87.989807%)" offset="0.222656"/><stop stop-opacity="1" stop-color="rgb(0.90332%, 16.345215%, 88.044739%)" offset="0.226562"/><stop stop-opacity="1" stop-color="rgb(0.892639%, 16.693115%, 88.098145%)" offset="0.230469"/><stop stop-opacity="1" stop-color="rgb(0.881958%, 17.041016%, 88.15155%)" offset="0.234375"/><stop stop-opacity="1" stop-color="rgb(0.871277%, 17.388916%, 88.204956%)" offset="0.238281"/><stop stop-opacity="1" stop-color="rgb(0.860596%, 17.736816%, 88.259888%)" offset="0.242187"/><stop stop-opacity="1" stop-color="rgb(0.849915%, 18.084717%, 88.313293%)" offset="0.246094"/><stop stop-opacity="1" stop-color="rgb(0.839233%, 18.432617%, 88.366699%)" offset="0.25"/><stop stop-opacity="1" stop-color="rgb(0.827026%, 18.780518%, 88.420105%)" offset="0.253906"/><stop stop-opacity="1" stop-color="rgb(0.816345%, 19.128418%, 88.475037%)" offset="0.257812"/><stop stop-opacity="1" stop-color="rgb(0.805664%, 19.476318%, 88.528442%)" offset="0.261719"/><stop stop-opacity="1" stop-color="rgb(0.794983%, 19.824219%, 88.581848%)" offset="0.265625"/><stop stop-opacity="1" stop-color="rgb(0.784302%, 20.172119%, 88.635254%)" offset="0.269531"/><stop stop-opacity="1" stop-color="rgb(0.773621%, 20.52002%, 88.690186%)" offset="0.273438"/><stop stop-opacity="1" stop-color="rgb(0.762939%, 20.86792%, 88.743591%)" offset="0.277344"/><stop stop-opacity="1" stop-color="rgb(0.752258%, 21.21582%, 88.796997%)" offset="0.28125"/><stop stop-opacity="1" stop-color="rgb(0.741577%, 21.563721%, 88.850403%)" offset="0.285156"/><stop stop-opacity="1" stop-color="rgb(0.730896%, 21.911621%, 88.905334%)" offset="0.289062"/><stop stop-opacity="1" stop-color="rgb(0.720215%, 22.259521%, 88.95874%)" offset="0.292969"/><stop stop-opacity="1" stop-color="rgb(0.709534%, 22.607422%, 89.012146%)" offset="0.296875"/><stop stop-opacity="1" stop-color="rgb(0.698853%, 22.955322%, 89.065552%)" offset="0.300781"/><stop stop-opacity="1" stop-color="rgb(0.688171%, 23.303223%, 89.120483%)" offset="0.304688"/><stop stop-opacity="1" stop-color="rgb(0.675964%, 23.651123%, 89.173889%)" offset="0.308594"/><stop stop-opacity="1" stop-color="rgb(0.665283%, 23.999023%, 89.227295%)" offset="0.3125"/><stop stop-opacity="1" stop-color="rgb(0.654602%, 24.346924%, 89.280701%)" offset="0.316406"/><stop stop-opacity="1" stop-color="rgb(0.643921%, 24.694824%, 89.335632%)" offset="0.320312"/><stop stop-opacity="1" stop-color="rgb(0.63324%, 25.042725%, 89.389038%)" offset="0.324219"/><stop stop-opacity="1" stop-color="rgb(0.622559%, 25.390625%, 89.442444%)" offset="0.328125"/><stop stop-opacity="1" stop-color="rgb(0.611877%, 25.738525%, 89.49585%)" offset="0.332031"/><stop stop-opacity="1" stop-color="rgb(0.601196%, 26.086426%, 89.550781%)" offset="0.335937"/><stop stop-opacity="1" stop-color="rgb(0.590515%, 26.434326%, 89.604187%)" offset="0.339844"/><stop stop-opacity="1" stop-color="rgb(0.579834%, 26.782227%, 89.657593%)" offset="0.34375"/><stop stop-opacity="1" stop-color="rgb(0.569153%, 27.130127%, 89.710999%)" offset="0.347656"/><stop stop-opacity="1" stop-color="rgb(0.558472%, 27.478027%, 89.76593%)" offset="0.351562"/><stop stop-opacity="1" stop-color="rgb(0.546265%, 27.825928%, 89.819336%)" offset="0.355469"/><stop stop-opacity="1" stop-color="rgb(0.535583%, 28.173828%, 89.872742%)" offset="0.359375"/><stop stop-opacity="1" stop-color="rgb(0.524902%, 28.521729%, 89.926147%)" offset="0.363281"/><stop stop-opacity="1" stop-color="rgb(0.514221%, 28.869629%, 89.981079%)" offset="0.367187"/><stop stop-opacity="1" stop-color="rgb(0.50354%, 29.217529%, 90.034485%)" offset="0.371094"/><stop stop-opacity="1" stop-color="rgb(0.492859%, 29.566956%, 90.087891%)" offset="0.375"/><stop stop-opacity="1" stop-color="rgb(0.482178%, 29.914856%, 90.141296%)" offset="0.378906"/><stop stop-opacity="1" stop-color="rgb(0.471497%, 30.262756%, 90.196228%)" offset="0.382812"/><stop stop-opacity="1" stop-color="rgb(0.460815%, 30.610657%, 90.249634%)" offset="0.386719"/><stop stop-opacity="1" stop-color="rgb(0.450134%, 30.958557%, 90.30304%)" offset="0.390625"/><stop stop-opacity="1" stop-color="rgb(0.439453%, 31.306458%, 90.356445%)" offset="0.394531"/><stop stop-opacity="1" stop-color="rgb(0.428772%, 31.654358%, 90.411377%)" offset="0.398438"/><stop stop-opacity="1" stop-color="rgb(0.418091%, 32.002258%, 90.464783%)" offset="0.402344"/><stop stop-opacity="1" stop-color="rgb(0.40741%, 32.350159%, 90.518188%)" offset="0.40625"/><stop stop-opacity="1" stop-color="rgb(0.395203%, 32.698059%, 90.571594%)" offset="0.410156"/><stop stop-opacity="1" stop-color="rgb(0.384521%, 33.045959%, 90.625%)" offset="0.414062"/><stop stop-opacity="1" stop-color="rgb(0.37384%, 33.39386%, 90.678406%)" offset="0.417969"/><stop stop-opacity="1" stop-color="rgb(0.363159%, 33.74176%, 90.733337%)" offset="0.421875"/><stop stop-opacity="1" stop-color="rgb(0.352478%, 34.089661%, 90.786743%)" offset="0.425781"/><stop stop-opacity="1" stop-color="rgb(0.341797%, 34.437561%, 90.840149%)" offset="0.429687"/><stop stop-opacity="1" stop-color="rgb(0.331116%, 34.785461%, 90.893555%)" offset="0.433594"/><stop stop-opacity="1" stop-color="rgb(0.320435%, 35.133362%, 90.948486%)" offset="0.4375"/><stop stop-opacity="1" stop-color="rgb(0.309753%, 35.481262%, 91.001892%)" offset="0.441406"/><stop stop-opacity="1" stop-color="rgb(0.299072%, 35.829163%, 91.055298%)" offset="0.445312"/><stop stop-opacity="1" stop-color="rgb(0.288391%, 36.177063%, 91.108704%)" offset="0.449219"/><stop stop-opacity="1" stop-color="rgb(0.27771%, 36.524963%, 91.163635%)" offset="0.453125"/><stop stop-opacity="1" stop-color="rgb(0.267029%, 36.872864%, 91.217041%)" offset="0.457031"/><stop stop-opacity="1" stop-color="rgb(0.256348%, 37.220764%, 91.270447%)" offset="0.460937"/><stop stop-opacity="1" stop-color="rgb(0.244141%, 37.568665%, 91.323853%)" offset="0.464844"/><stop stop-opacity="1" stop-color="rgb(0.233459%, 37.916565%, 91.378784%)" offset="0.46875"/><stop stop-opacity="1" stop-color="rgb(0.222778%, 38.264465%, 91.43219%)" offset="0.472656"/><stop stop-opacity="1" stop-color="rgb(0.212097%, 38.612366%, 91.485596%)" offset="0.476562"/><stop stop-opacity="1" stop-color="rgb(0.201416%, 38.960266%, 91.539001%)" offset="0.480469"/><stop stop-opacity="1" stop-color="rgb(0.190735%, 39.308167%, 91.593933%)" offset="0.484375"/><stop stop-opacity="1" stop-color="rgb(0.180054%, 39.656067%, 91.647339%)" offset="0.488281"/><stop stop-opacity="1" stop-color="rgb(0.169373%, 40.003967%, 91.700745%)" offset="0.492188"/><stop stop-opacity="1" stop-color="rgb(0.158691%, 40.351868%, 91.75415%)" offset="0.496094"/><stop stop-opacity="1" stop-color="rgb(0.14801%, 40.699768%, 91.809082%)" offset="0.5"/><stop stop-opacity="1" stop-color="rgb(0.137329%, 41.047668%, 91.862488%)" offset="0.503906"/><stop stop-opacity="1" stop-color="rgb(0.126648%, 41.395569%, 91.915894%)" offset="0.507812"/><stop stop-opacity="1" stop-color="rgb(0.115967%, 41.743469%, 91.969299%)" offset="0.511719"/><stop stop-opacity="1" stop-color="rgb(0.105286%, 42.09137%, 92.024231%)" offset="0.515625"/><stop stop-opacity="1" stop-color="rgb(0.0930786%, 42.43927%, 92.077637%)" offset="0.519531"/><stop stop-opacity="1" stop-color="rgb(0.0823975%, 42.78717%, 92.131042%)" offset="0.523437"/><stop stop-opacity="1" stop-color="rgb(0.0717163%, 43.135071%, 92.184448%)" offset="0.527344"/><stop stop-opacity="1" stop-color="rgb(0.0610352%, 43.482971%, 92.23938%)" offset="0.53125"/><stop stop-opacity="1" stop-color="rgb(0.050354%, 43.830872%, 92.292786%)" offset="0.535156"/><stop stop-opacity="1" stop-color="rgb(0.0396729%, 44.178772%, 92.346191%)" offset="0.539062"/><stop stop-opacity="1" stop-color="rgb(0.0289917%, 44.526672%, 92.399597%)" offset="0.542969"/><stop stop-opacity="1" stop-color="rgb(0.0183105%, 44.874573%, 92.454529%)" offset="0.546875"/><stop stop-opacity="1" stop-color="rgb(0.00915527%, 45.20874%, 92.492676%)" offset="0.550781"/><stop stop-opacity="1" stop-color="rgb(0%, 45.542908%, 92.530823%)" offset="0.554688"/><stop stop-opacity="1" stop-color="rgb(0%, 45.77179%, 92.451477%)" offset="0.558594"/><stop stop-opacity="1" stop-color="rgb(0%, 46.002197%, 92.373657%)" offset="0.5625"/><stop stop-opacity="1" stop-color="rgb(0%, 46.231079%, 92.294312%)" offset="0.566406"/><stop stop-opacity="1" stop-color="rgb(0%, 46.461487%, 92.214966%)" offset="0.570312"/><stop stop-opacity="1" stop-color="rgb(0%, 46.690369%, 92.13562%)" offset="0.574219"/><stop stop-opacity="1" stop-color="rgb(0%, 46.91925%, 92.0578%)" offset="0.578125"/><stop stop-opacity="1" stop-color="rgb(0%, 47.148132%, 91.978455%)" offset="0.582031"/><stop stop-opacity="1" stop-color="rgb(0%, 47.37854%, 91.899109%)" offset="0.585937"/><stop stop-opacity="1" stop-color="rgb(0%, 47.607422%, 91.819763%)" offset="0.589844"/><stop stop-opacity="1" stop-color="rgb(0%, 47.83783%, 91.741943%)" offset="0.59375"/><stop stop-opacity="1" stop-color="rgb(0%, 48.066711%, 91.662598%)" offset="0.597656"/><stop stop-opacity="1" stop-color="rgb(0%, 48.297119%, 91.583252%)" offset="0.601562"/><stop stop-opacity="1" stop-color="rgb(0%, 48.526001%, 91.503906%)" offset="0.605469"/><stop stop-opacity="1" stop-color="rgb(0%, 48.756409%, 91.426086%)" offset="0.609375"/><stop stop-opacity="1" stop-color="rgb(0%, 48.985291%, 91.346741%)" offset="0.613281"/><stop stop-opacity="1" stop-color="rgb(0%, 49.215698%, 91.267395%)" offset="0.617187"/><stop stop-opacity="1" stop-color="rgb(0%, 49.44458%, 91.188049%)" offset="0.621094"/><stop stop-opacity="1" stop-color="rgb(0%, 49.674988%, 91.110229%)" offset="0.625"/><stop stop-opacity="1" stop-color="rgb(0%, 49.90387%, 91.030884%)" offset="0.628906"/><stop stop-opacity="1" stop-color="rgb(0%, 50.134277%, 90.951538%)" offset="0.632812"/><stop stop-opacity="1" stop-color="rgb(0%, 50.363159%, 90.872192%)" offset="0.636719"/><stop stop-opacity="1" stop-color="rgb(0%, 50.593567%, 90.794373%)" offset="0.640625"/><stop stop-opacity="1" stop-color="rgb(0%, 50.822449%, 90.715027%)" offset="0.644531"/><stop stop-opacity="1" stop-color="rgb(0%, 51.052856%, 90.637207%)" offset="0.648438"/><stop stop-opacity="1" stop-color="rgb(0%, 51.281738%, 90.557861%)" offset="0.652344"/><stop stop-opacity="1" stop-color="rgb(0%, 51.51062%, 90.478516%)" offset="0.65625"/><stop stop-opacity="1" stop-color="rgb(0%, 51.739502%, 90.39917%)" offset="0.660156"/><stop stop-opacity="1" stop-color="rgb(0%, 51.96991%, 90.32135%)" offset="0.664062"/><stop stop-opacity="1" stop-color="rgb(0%, 52.198792%, 90.242004%)" offset="0.667969"/><stop stop-opacity="1" stop-color="rgb(0%, 52.429199%, 90.162659%)" offset="0.671875"/><stop stop-opacity="1" stop-color="rgb(0%, 52.658081%, 90.083313%)" offset="0.675781"/><stop stop-opacity="1" stop-color="rgb(0%, 52.888489%, 90.005493%)" offset="0.679688"/><stop stop-opacity="1" stop-color="rgb(0%, 53.117371%, 89.926147%)" offset="0.683594"/><stop stop-opacity="1" stop-color="rgb(0%, 53.347778%, 89.846802%)" offset="0.6875"/><stop stop-opacity="1" stop-color="rgb(0%, 53.57666%, 89.767456%)" offset="0.691406"/><stop stop-opacity="1" stop-color="rgb(0%, 53.807068%, 89.689636%)" offset="0.695312"/><stop stop-opacity="1" stop-color="rgb(0%, 54.03595%, 89.610291%)" offset="0.699219"/><stop stop-opacity="1" stop-color="rgb(0%, 54.266357%, 89.530945%)" offset="0.703125"/><stop stop-opacity="1" stop-color="rgb(0%, 54.495239%, 89.451599%)" offset="0.707031"/><stop stop-opacity="1" stop-color="rgb(0%, 54.725647%, 89.373779%)" offset="0.710938"/><stop stop-opacity="1" stop-color="rgb(0%, 54.954529%, 89.294434%)" offset="0.714844"/><stop stop-opacity="1" stop-color="rgb(0%, 55.184937%, 89.216614%)" offset="0.71875"/><stop stop-opacity="1" stop-color="rgb(0%, 55.413818%, 89.137268%)" offset="0.722656"/><stop stop-opacity="1" stop-color="rgb(0%, 55.6427%, 89.057922%)" offset="0.726562"/><stop stop-opacity="1" stop-color="rgb(0%, 55.871582%, 88.978577%)" offset="0.730469"/><stop stop-opacity="1" stop-color="rgb(0%, 56.10199%, 88.900757%)" offset="0.734375"/><stop stop-opacity="1" stop-color="rgb(0%, 56.330872%, 88.821411%)" offset="0.738281"/><stop stop-opacity="1" stop-color="rgb(0%, 56.561279%, 88.742065%)" offset="0.742188"/><stop stop-opacity="1" stop-color="rgb(0%, 56.790161%, 88.66272%)" offset="0.746094"/><stop stop-opacity="1" stop-color="rgb(0%, 57.020569%, 88.5849%)" offset="0.75"/><stop stop-opacity="1" stop-color="rgb(0%, 57.249451%, 88.505554%)" offset="0.753906"/><stop stop-opacity="1" stop-color="rgb(0%, 57.479858%, 88.426208%)" offset="0.757812"/><stop stop-opacity="1" stop-color="rgb(0%, 57.70874%, 88.346863%)" offset="0.761719"/><stop stop-opacity="1" stop-color="rgb(0%, 57.939148%, 88.269043%)" offset="0.765625"/><stop stop-opacity="1" stop-color="rgb(0%, 58.16803%, 88.189697%)" offset="0.769531"/><stop stop-opacity="1" stop-color="rgb(0%, 58.398438%, 88.110352%)" offset="0.773437"/><stop stop-opacity="1" stop-color="rgb(0%, 58.627319%, 88.031006%)" offset="0.777344"/><stop stop-opacity="1" stop-color="rgb(0%, 58.857727%, 87.953186%)" offset="0.78125"/><stop stop-opacity="1" stop-color="rgb(0%, 59.086609%, 87.87384%)" offset="0.785156"/><stop stop-opacity="1" stop-color="rgb(0%, 59.317017%, 87.794495%)" offset="0.789062"/><stop stop-opacity="1" stop-color="rgb(0%, 59.545898%, 87.715149%)" offset="0.792969"/><stop stop-opacity="1" stop-color="rgb(0%, 59.77478%, 87.637329%)" offset="0.796875"/><stop stop-opacity="1" stop-color="rgb(0%, 60.003662%, 87.557983%)" offset="0.800781"/><stop stop-opacity="1" stop-color="rgb(0%, 60.23407%, 87.480164%)" offset="0.804687"/><stop stop-opacity="1" stop-color="rgb(0%, 60.462952%, 87.400818%)" offset="0.808594"/><stop stop-opacity="1" stop-color="rgb(0%, 60.693359%, 87.321472%)" offset="0.8125"/><stop stop-opacity="1" stop-color="rgb(0%, 60.922241%, 87.242126%)" offset="0.816406"/><stop stop-opacity="1" stop-color="rgb(0%, 61.152649%, 87.164307%)" offset="0.820312"/><stop stop-opacity="1" stop-color="rgb(0%, 61.381531%, 87.084961%)" offset="0.824219"/><stop stop-opacity="1" stop-color="rgb(0%, 61.611938%, 87.005615%)" offset="0.828125"/><stop stop-opacity="1" stop-color="rgb(0%, 61.84082%, 86.92627%)" offset="0.832031"/><stop stop-opacity="1" stop-color="rgb(0%, 62.071228%, 86.84845%)" offset="0.835937"/><stop stop-opacity="1" stop-color="rgb(0%, 62.30011%, 86.769104%)" offset="0.839844"/><stop stop-opacity="1" stop-color="rgb(0%, 62.530518%, 86.689758%)" offset="0.84375"/><stop stop-opacity="1" stop-color="rgb(0%, 62.759399%, 86.610413%)" offset="0.847656"/><stop stop-opacity="1" stop-color="rgb(0%, 62.989807%, 86.532593%)" offset="0.851562"/><stop stop-opacity="1" stop-color="rgb(0%, 63.218689%, 86.453247%)" offset="0.855469"/><stop stop-opacity="1" stop-color="rgb(0%, 63.449097%, 86.373901%)" offset="0.859375"/><stop stop-opacity="1" stop-color="rgb(0%, 63.677979%, 86.294556%)" offset="0.863281"/><stop stop-opacity="1" stop-color="rgb(0%, 63.908386%, 86.216736%)" offset="0.867188"/><stop stop-opacity="1" stop-color="rgb(0%, 64.137268%, 86.13739%)" offset="0.871094"/><stop stop-opacity="1" stop-color="rgb(0%, 64.36615%, 86.058044%)" offset="0.875"/><stop stop-opacity="1" stop-color="rgb(0%, 64.595032%, 85.978699%)" offset="0.878906"/><stop stop-opacity="1" stop-color="rgb(0%, 64.825439%, 85.900879%)" offset="0.882812"/><stop stop-opacity="1" stop-color="rgb(0%, 65.054321%, 85.821533%)" offset="0.886719"/><stop stop-opacity="1" stop-color="rgb(0%, 65.284729%, 85.743713%)" offset="0.890625"/><stop stop-opacity="1" stop-color="rgb(0%, 65.513611%, 85.664368%)" offset="0.894531"/><stop stop-opacity="1" stop-color="rgb(0%, 65.744019%, 85.585022%)" offset="0.898438"/><stop stop-opacity="1" stop-color="rgb(0%, 65.9729%, 85.505676%)" offset="0.902344"/><stop stop-opacity="1" stop-color="rgb(0%, 66.203308%, 85.427856%)" offset="0.90625"/><stop stop-opacity="1" stop-color="rgb(0%, 66.43219%, 85.348511%)" offset="0.910156"/><stop stop-opacity="1" stop-color="rgb(0%, 66.662598%, 85.269165%)" offset="0.914062"/><stop stop-opacity="1" stop-color="rgb(0%, 66.891479%, 85.189819%)" offset="0.917969"/><stop stop-opacity="1" stop-color="rgb(0%, 67.121887%, 85.112%)" offset="0.921875"/><stop stop-opacity="1" stop-color="rgb(0%, 67.350769%, 85.032654%)" offset="0.925781"/><stop stop-opacity="1" stop-color="rgb(0%, 67.581177%, 84.953308%)" offset="0.929688"/><stop stop-opacity="1" stop-color="rgb(0%, 67.810059%, 84.873962%)" offset="0.933594"/><stop stop-opacity="1" stop-color="rgb(0%, 68.040466%, 84.796143%)" offset="0.9375"/><stop stop-opacity="1" stop-color="rgb(0%, 68.269348%, 84.716797%)" offset="0.941406"/><stop stop-opacity="1" stop-color="rgb(0%, 68.49823%, 84.637451%)" offset="0.945312"/><stop stop-opacity="1" stop-color="rgb(0%, 68.727112%, 84.558105%)" offset="0.949219"/><stop stop-opacity="1" stop-color="rgb(0%, 68.95752%, 84.480286%)" offset="0.953125"/><stop stop-opacity="1" stop-color="rgb(0%, 69.186401%, 84.40094%)" offset="0.957031"/><stop stop-opacity="1" stop-color="rgb(0%, 69.416809%, 84.321594%)" offset="0.960937"/><stop stop-opacity="1" stop-color="rgb(0%, 69.645691%, 84.242249%)" offset="0.964844"/><stop stop-opacity="1" stop-color="rgb(0%, 69.876099%, 84.164429%)" offset="0.96875"/><stop stop-opacity="1" stop-color="rgb(0%, 70.10498%, 84.085083%)" offset="0.972656"/><stop stop-opacity="1" stop-color="rgb(0%, 70.335388%, 84.007263%)" offset="0.976562"/><stop stop-opacity="1" stop-color="rgb(0%, 70.462036%, 83.963013%)" offset="0.984375"/><stop stop-opacity="1" stop-color="rgb(0%, 70.588684%, 83.918762%)" offset="1"/></linearGradient><clipPath id="a0214f0336"><rect x="0" width="298" y="0" height="50"/></clipPath><clipPath id="3fa2f66641"><path d="M 0.5 0 L 297.5 0 L 297.5 49.003906 L 0.5 49.003906 Z M 0.5 0 " clip-rule="nonzero"/></clipPath><clipPath id="e977615524"><rect x="0" width="298" y="0" height="50"/></clipPath><clipPath id="aa42dfd608"><rect x="0" width="298" y="0" height="50"/></clipPath><mask id="8e8c990abb"><g filter="url(#4a85609144)"><g><g clip-path="url(#aa42dfd608)"><g clip-path="url(#3fa2f66641)"><g><g clip-path="url(#e977615524)"><g fill="#000000" fill-opacity="1"><g transform="translate(38.131323, 30.813748)"><g><path d="M 0.625 -6.625 C 0.625 -7.925781 0.90625 -9.085938 1.46875 -10.109375 C 2.03125 -11.128906 2.816406 -11.925781 3.828125 -12.5 C 4.835938 -13.070312 5.984375 -13.359375 7.265625 -13.359375 C 8.828125 -13.359375 10.164062 -12.941406 11.28125 -12.109375 C 12.40625 -11.285156 13.15625 -10.160156 13.53125 -8.734375 L 9.984375 -8.734375 C 9.722656 -9.285156 9.347656 -9.703125 8.859375 -9.984375 C 8.378906 -10.273438 7.832031 -10.421875 7.21875 -10.421875 C 6.226562 -10.421875 5.425781 -10.078125 4.8125 -9.390625 C 4.195312 -8.703125 3.890625 -7.78125 3.890625 -6.625 C 3.890625 -5.46875 4.195312 -4.546875 4.8125 -3.859375 C 5.425781 -3.171875 6.226562 -2.828125 7.21875 -2.828125 C 7.832031 -2.828125 8.378906 -2.96875 8.859375 -3.25 C 9.347656 -3.539062 9.722656 -3.960938 9.984375 -4.515625 L 13.53125 -4.515625 C 13.15625 -3.085938 12.40625 -1.960938 11.28125 -1.140625 C 10.164062 -0.316406 8.828125 0.09375 7.265625 0.09375 C 5.984375 0.09375 4.835938 -0.191406 3.828125 -0.765625 C 2.816406 -1.335938 2.03125 -2.128906 1.46875 -3.140625 C 0.90625 -4.160156 0.625 -5.320312 0.625 -6.625 Z M 0.625 -6.625 "/></g></g></g><g fill="#000000" fill-opacity="1"><g transform="translate(52.46162, 30.813748)"><g><path d="M 4.390625 -13.921875 L 4.390625 0 L 1.171875 0 L 1.171875 -13.921875 Z M 4.390625 -13.921875 "/></g></g></g><g fill="#000000" fill-opacity="1"><g transform="translate(58.009432, 30.813748)"><g><path d="M 4.625 -10.5 L 4.625 0 L 1.40625 0 L 1.40625 -10.5 Z M 5.203125 -13.109375 L 0.671875 -11.21875 L 0.671875 -13.4375 L 5.203125 -15.609375 Z M 5.203125 -13.109375 "/></g></g></g><g fill="#000000" fill-opacity="1"><g transform="translate(64.04621, 30.813748)"><g><path d="M 7.5625 -10.609375 C 8.789062 -10.609375 9.769531 -10.207031 10.5 -9.40625 C 11.238281 -8.613281 11.609375 -7.523438 11.609375 -6.140625 L 11.609375 0 L 8.40625 0 L 8.40625 -5.703125 C 8.40625 -6.398438 8.222656 -6.941406 7.859375 -7.328125 C 7.492188 -7.722656 7.003906 -7.921875 6.390625 -7.921875 C 5.773438 -7.921875 5.285156 -7.722656 4.921875 -7.328125 C 4.566406 -6.941406 4.390625 -6.398438 4.390625 -5.703125 L 4.390625 0 L 1.171875 0 L 1.171875 -10.5 L 4.390625 -10.5 L 4.390625 -9.109375 C 4.710938 -9.566406 5.148438 -9.929688 5.703125 -10.203125 C 6.253906 -10.472656 6.875 -10.609375 7.5625 -10.609375 Z M 7.5625 -10.609375 "/></g></g></g><g fill="#000000" fill-opacity="1"><g transform="translate(76.721561, 30.813748)"><g><path d="M 2.78125 -11.59375 C 2.21875 -11.59375 1.753906 -11.753906 1.390625 -12.078125 C 1.035156 -12.410156 0.859375 -12.820312 0.859375 -13.3125 C 0.859375 -13.820312 1.035156 -14.238281 1.390625 -14.5625 C 1.753906 -14.894531 2.21875 -15.0625 2.78125 -15.0625 C 3.332031 -15.0625 3.785156 -14.894531 4.140625 -14.5625 C 4.503906 -14.238281 4.6875 -13.820312 4.6875 -13.3125 C 4.6875 -12.820312 4.503906 -12.410156 4.140625 -12.078125 C 3.785156 -11.753906 3.332031 -11.59375 2.78125 -11.59375 Z M 4.390625 -10.5 L 4.390625 0 L 1.171875 0 L 1.171875 -10.5 Z M 4.390625 -10.5 "/></g></g></g><g fill="#000000" fill-opacity="1"><g transform="translate(82.269374, 30.813748)"><g><path d="M 0.53125 -5.25 C 0.53125 -6.34375 0.75 -7.296875 1.1875 -8.109375 C 1.632812 -8.921875 2.253906 -9.546875 3.046875 -9.984375 C 3.847656 -10.421875 4.765625 -10.640625 5.796875 -10.640625 C 7.109375 -10.640625 8.207031 -10.296875 9.09375 -9.609375 C 9.976562 -8.921875 10.5625 -7.953125 10.84375 -6.703125 L 7.40625 -6.703125 C 7.125 -7.503906 6.566406 -7.90625 5.734375 -7.90625 C 5.148438 -7.90625 4.679688 -7.675781 4.328125 -7.21875 C 3.972656 -6.757812 3.796875 -6.101562 3.796875 -5.25 C 3.796875 -4.394531 3.972656 -3.738281 4.328125 -3.28125 C 4.679688 -2.820312 5.148438 -2.59375 5.734375 -2.59375 C 6.566406 -2.59375 7.125 -2.992188 7.40625 -3.796875 L 10.84375 -3.796875 C 10.5625 -2.566406 9.972656 -1.597656 9.078125 -0.890625 C 8.191406 -0.191406 7.097656 0.15625 5.796875 0.15625 C 4.765625 0.15625 3.847656 -0.0625 3.046875 -0.5 C 2.253906 -0.945312 1.632812 -1.578125 1.1875 -2.390625 C 0.75 -3.203125 0.53125 -4.15625 0.53125 -5.25 Z M 0.53125 -5.25 "/></g></g></g><g fill="#000000" fill-opacity="1"><g transform="translate(93.647095, 30.813748)"><g><path d="M 0.53125 -5.265625 C 0.53125 -6.347656 0.734375 -7.296875 1.140625 -8.109375 C 1.546875 -8.921875 2.097656 -9.546875 2.796875 -9.984375 C 3.503906 -10.421875 4.289062 -10.640625 5.15625 -10.640625 C 5.894531 -10.640625 6.539062 -10.488281 7.09375 -10.1875 C 7.65625 -9.894531 8.085938 -9.503906 8.390625 -9.015625 L 8.390625 -10.5 L 11.609375 -10.5 L 11.609375 0 L 8.390625 0 L 8.390625 -1.484375 C 8.078125 -0.992188 7.640625 -0.597656 7.078125 -0.296875 C 6.523438 0.00390625 5.878906 0.15625 5.140625 0.15625 C 4.285156 0.15625 3.503906 -0.0664062 2.796875 -0.515625 C 2.097656 -0.960938 1.546875 -1.597656 1.140625 -2.421875 C 0.734375 -3.242188 0.53125 -4.191406 0.53125 -5.265625 Z M 8.390625 -5.25 C 8.390625 -6.050781 8.164062 -6.679688 7.71875 -7.140625 C 7.269531 -7.609375 6.726562 -7.84375 6.09375 -7.84375 C 5.457031 -7.84375 4.914062 -7.613281 4.46875 -7.15625 C 4.019531 -6.695312 3.796875 -6.066406 3.796875 -5.265625 C 3.796875 -4.460938 4.019531 -3.828125 4.46875 -3.359375 C 4.914062 -2.890625 5.457031 -2.65625 6.09375 -2.65625 C 6.726562 -2.65625 7.269531 -2.882812 7.71875 -3.34375 C 8.164062 -3.8125 8.390625 -4.445312 8.390625 -5.25 Z M 8.390625 -5.25 "/></g></g></g><g fill="#000000" fill-opacity="1"><g transform="translate(106.416472, 30.813748)"><g/></g></g><g fill="#000000" fill-opacity="1"><g transform="translate(110.403376, 30.813748)"><g><path d="M 7.40625 0.125 C 6.164062 0.125 5.03125 -0.160156 4 -0.734375 C 2.96875 -1.304688 2.144531 -2.109375 1.53125 -3.140625 C 0.925781 -4.179688 0.625 -5.347656 0.625 -6.640625 C 0.625 -7.929688 0.925781 -9.085938 1.53125 -10.109375 C 2.144531 -11.140625 2.96875 -11.941406 4 -12.515625 C 5.03125 -13.097656 6.164062 -13.390625 7.40625 -13.390625 C 8.65625 -13.390625 9.796875 -13.097656 10.828125 -12.515625 C 11.859375 -11.941406 12.671875 -11.140625 13.265625 -10.109375 C 13.867188 -9.085938 14.171875 -7.929688 14.171875 -6.640625 C 14.171875 -5.347656 13.867188 -4.179688 13.265625 -3.140625 C 12.660156 -2.109375 11.84375 -1.304688 10.8125 -0.734375 C 9.789062 -0.160156 8.65625 0.125 7.40625 0.125 Z M 7.40625 -2.796875 C 8.46875 -2.796875 9.3125 -3.144531 9.9375 -3.84375 C 10.570312 -4.550781 10.890625 -5.484375 10.890625 -6.640625 C 10.890625 -7.804688 10.570312 -8.738281 9.9375 -9.4375 C 9.3125 -10.132812 8.46875 -10.484375 7.40625 -10.484375 C 6.34375 -10.484375 5.492188 -10.132812 4.859375 -9.4375 C 4.222656 -8.75 3.90625 -7.816406 3.90625 -6.640625 C 3.90625 -5.472656 4.222656 -4.539062 4.859375 -3.84375 C 5.492188 -3.144531 6.34375 -2.796875 7.40625 -2.796875 Z M 7.40625 -2.796875 "/></g></g></g><g fill="#000000" fill-opacity="1"><g transform="translate(125.185011, 30.813748)"><g><path d="M 0.53125 -5.265625 C 0.53125 -6.347656 0.734375 -7.296875 1.140625 -8.109375 C 1.546875 -8.921875 2.097656 -9.546875 2.796875 -9.984375 C 3.503906 -10.421875 4.289062 -10.640625 5.15625 -10.640625 C 5.84375 -10.640625 6.472656 -10.492188 7.046875 -10.203125 C 7.617188 -9.921875 8.066406 -9.535156 8.390625 -9.046875 L 8.390625 -13.921875 L 11.609375 -13.921875 L 11.609375 0 L 8.390625 0 L 8.390625 -1.5 C 8.085938 -1 7.65625 -0.597656 7.09375 -0.296875 C 6.539062 0.00390625 5.894531 0.15625 5.15625 0.15625 C 4.289062 0.15625 3.503906 -0.0664062 2.796875 -0.515625 C 2.097656 -0.960938 1.546875 -1.597656 1.140625 -2.421875 C 0.734375 -3.242188 0.53125 -4.191406 0.53125 -5.265625 Z M 8.390625 -5.25 C 8.390625 -6.050781 8.164062 -6.679688 7.71875 -7.140625 C 7.269531 -7.609375 6.726562 -7.84375 6.09375 -7.84375 C 5.457031 -7.84375 4.914062 -7.613281 4.46875 -7.15625 C 4.019531 -6.695312 3.796875 -6.066406 3.796875 -5.265625 C 3.796875 -4.460938 4.019531 -3.828125 4.46875 -3.359375 C 4.914062 -2.890625 5.457031 -2.65625 6.09375 -2.65625 C 6.726562 -2.65625 7.269531 -2.882812 7.71875 -3.34375 C 8.164062 -3.8125 8.390625 -4.445312 8.390625 -5.25 Z M 8.390625 -5.25 "/></g></g></g><g fill="#000000" fill-opacity="1"><g transform="translate(137.954388, 30.813748)"><g><path d="M 5.9375 0.15625 C 4.914062 0.15625 3.992188 -0.0625 3.171875 -0.5 C 2.347656 -0.945312 1.703125 -1.578125 1.234375 -2.390625 C 0.765625 -3.203125 0.53125 -4.15625 0.53125 -5.25 C 0.53125 -6.320312 0.765625 -7.269531 1.234375 -8.09375 C 1.710938 -8.914062 2.363281 -9.546875 3.1875 -9.984375 C 4.019531 -10.421875 4.953125 -10.640625 5.984375 -10.640625 C 7.015625 -10.640625 7.941406 -10.421875 8.765625 -9.984375 C 9.597656 -9.546875 10.25 -8.914062 10.71875 -8.09375 C 11.195312 -7.269531 11.4375 -6.320312 11.4375 -5.25 C 11.4375 -4.164062 11.191406 -3.210938 10.703125 -2.390625 C 10.222656 -1.578125 9.566406 -0.945312 8.734375 -0.5 C 7.898438 -0.0625 6.96875 0.15625 5.9375 0.15625 Z M 5.9375 -2.640625 C 6.550781 -2.640625 7.078125 -2.863281 7.515625 -3.3125 C 7.953125 -3.757812 8.171875 -4.40625 8.171875 -5.25 C 8.171875 -6.09375 7.957031 -6.738281 7.53125 -7.1875 C 7.113281 -7.632812 6.597656 -7.859375 5.984375 -7.859375 C 5.359375 -7.859375 4.835938 -7.632812 4.421875 -7.1875 C 4.003906 -6.75 3.796875 -6.101562 3.796875 -5.25 C 3.796875 -4.40625 4 -3.757812 4.40625 -3.3125 C 4.8125 -2.863281 5.320312 -2.640625 5.9375 -2.640625 Z M 5.9375 -2.640625 "/></g></g></g><g fill="#000000" fill-opacity="1"><g transform="translate(149.933907, 30.813748)"><g><path d="M 7.5625 -10.609375 C 8.789062 -10.609375 9.769531 -10.207031 10.5 -9.40625 C 11.238281 -8.613281 11.609375 -7.523438 11.609375 -6.140625 L 11.609375 0 L 8.40625 0 L 8.40625 -5.703125 C 8.40625 -6.398438 8.222656 -6.941406 7.859375 -7.328125 C 7.492188 -7.722656 7.003906 -7.921875 6.390625 -7.921875 C 5.773438 -7.921875 5.285156 -7.722656 4.921875 -7.328125 C 4.566406 -6.941406 4.390625 -6.398438 4.390625 -5.703125 L 4.390625 0 L 1.171875 0 L 1.171875 -10.5 L 4.390625 -10.5 L 4.390625 -9.109375 C 4.710938 -9.566406 5.148438 -9.929688 5.703125 -10.203125 C 6.253906 -10.472656 6.875 -10.609375 7.5625 -10.609375 Z M 7.5625 -10.609375 "/></g></g></g><g fill="#000000" fill-opacity="1"><g transform="translate(162.609258, 30.813748)"><g><path d="M 7.015625 -2.734375 L 7.015625 0 L 5.375 0 C 4.207031 0 3.296875 -0.285156 2.640625 -0.859375 C 1.992188 -1.429688 1.671875 -2.363281 1.671875 -3.65625 L 1.671875 -7.828125 L 0.390625 -7.828125 L 0.390625 -10.5 L 1.671875 -10.5 L 1.671875 -13.0625 L 4.890625 -13.0625 L 4.890625 -10.5 L 7 -10.5 L 7 -7.828125 L 4.890625 -7.828125 L 4.890625 -3.609375 C 4.890625 -3.296875 4.960938 -3.070312 5.109375 -2.9375 C 5.265625 -2.800781 5.519531 -2.734375 5.875 -2.734375 Z M 7.015625 -2.734375 "/></g></g></g><g fill="#000000" fill-opacity="1"><g transform="translate(170.244559, 30.813748)"><g><path d="M 5.9375 0.15625 C 4.914062 0.15625 3.992188 -0.0625 3.171875 -0.5 C 2.347656 -0.945312 1.703125 -1.578125 1.234375 -2.390625 C 0.765625 -3.203125 0.53125 -4.15625 0.53125 -5.25 C 0.53125 -6.320312 0.765625 -7.269531 1.234375 -8.09375 C 1.710938 -8.914062 2.363281 -9.546875 3.1875 -9.984375 C 4.019531 -10.421875 4.953125 -10.640625 5.984375 -10.640625 C 7.015625 -10.640625 7.941406 -10.421875 8.765625 -9.984375 C 9.597656 -9.546875 10.25 -8.914062 10.71875 -8.09375 C 11.195312 -7.269531 11.4375 -6.320312 11.4375 -5.25 C 11.4375 -4.164062 11.191406 -3.210938 10.703125 -2.390625 C 10.222656 -1.578125 9.566406 -0.945312 8.734375 -0.5 C 7.898438 -0.0625 6.96875 0.15625 5.9375 0.15625 Z M 5.9375 -2.640625 C 6.550781 -2.640625 7.078125 -2.863281 7.515625 -3.3125 C 7.953125 -3.757812 8.171875 -4.40625 8.171875 -5.25 C 8.171875 -6.09375 7.957031 -6.738281 7.53125 -7.1875 C 7.113281 -7.632812 6.597656 -7.859375 5.984375 -7.859375 C 5.359375 -7.859375 4.835938 -7.632812 4.421875 -7.1875 C 4.003906 -6.75 3.796875 -6.101562 3.796875 -5.25 C 3.796875 -4.40625 4 -3.757812 4.40625 -3.3125 C 4.8125 -2.863281 5.320312 -2.640625 5.9375 -2.640625 Z M 5.9375 -2.640625 "/></g></g></g><g fill="#000000" fill-opacity="1"><g transform="translate(182.224078, 30.813748)"><g><path d="M 4.390625 -13.921875 L 4.390625 0 L 1.171875 0 L 1.171875 -13.921875 Z M 4.390625 -13.921875 "/></g></g></g><g fill="#000000" fill-opacity="1"><g transform="translate(187.77189, 30.813748)"><g><path d="M 5.9375 0.15625 C 4.914062 0.15625 3.992188 -0.0625 3.171875 -0.5 C 2.347656 -0.945312 1.703125 -1.578125 1.234375 -2.390625 C 0.765625 -3.203125 0.53125 -4.15625 0.53125 -5.25 C 0.53125 -6.320312 0.765625 -7.269531 1.234375 -8.09375 C 1.710938 -8.914062 2.363281 -9.546875 3.1875 -9.984375 C 4.019531 -10.421875 4.953125 -10.640625 5.984375 -10.640625 C 7.015625 -10.640625 7.941406 -10.421875 8.765625 -9.984375 C 9.597656 -9.546875 10.25 -8.914062 10.71875 -8.09375 C 11.195312 -7.269531 11.4375 -6.320312 11.4375 -5.25 C 11.4375 -4.164062 11.191406 -3.210938 10.703125 -2.390625 C 10.222656 -1.578125 9.566406 -0.945312 8.734375 -0.5 C 7.898438 -0.0625 6.96875 0.15625 5.9375 0.15625 Z M 5.9375 -2.640625 C 6.550781 -2.640625 7.078125 -2.863281 7.515625 -3.3125 C 7.953125 -3.757812 8.171875 -4.40625 8.171875 -5.25 C 8.171875 -6.09375 7.957031 -6.738281 7.53125 -7.1875 C 7.113281 -7.632812 6.597656 -7.859375 5.984375 -7.859375 C 5.359375 -7.859375 4.835938 -7.632812 4.421875 -7.1875 C 4.003906 -6.75 3.796875 -6.101562 3.796875 -5.25 C 3.796875 -4.40625 4 -3.757812 4.40625 -3.3125 C 4.8125 -2.863281 5.320312 -2.640625 5.9375 -2.640625 Z M 8.421875 -13.1875 L 3.890625 -11.296875 L 3.890625 -13.515625 L 8.421875 -15.6875 Z M 8.421875 -13.1875 "/></g></g></g><g fill="#000000" fill-opacity="1"><g transform="translate(199.751409, 30.813748)"><g><path d="M 5.15625 -10.640625 C 5.894531 -10.640625 6.539062 -10.488281 7.09375 -10.1875 C 7.65625 -9.894531 8.085938 -9.503906 8.390625 -9.015625 L 8.390625 -10.5 L 11.609375 -10.5 L 11.609375 -0.015625 C 11.609375 0.953125 11.414062 1.828125 11.03125 2.609375 C 10.644531 3.390625 10.0625 4.007812 9.28125 4.46875 C 8.5 4.9375 7.523438 5.171875 6.359375 5.171875 C 4.804688 5.171875 3.546875 4.800781 2.578125 4.0625 C 1.609375 3.332031 1.054688 2.34375 0.921875 1.09375 L 4.09375 1.09375 C 4.195312 1.488281 4.4375 1.800781 4.8125 2.03125 C 5.1875 2.269531 5.648438 2.390625 6.203125 2.390625 C 6.867188 2.390625 7.398438 2.195312 7.796875 1.8125 C 8.191406 1.425781 8.390625 0.816406 8.390625 -0.015625 L 8.390625 -1.5 C 8.078125 -1.007812 7.644531 -0.609375 7.09375 -0.296875 C 6.539062 0.00390625 5.894531 0.15625 5.15625 0.15625 C 4.289062 0.15625 3.503906 -0.0664062 2.796875 -0.515625 C 2.097656 -0.960938 1.546875 -1.597656 1.140625 -2.421875 C 0.734375 -3.242188 0.53125 -4.191406 0.53125 -5.265625 C 0.53125 -6.347656 0.734375 -7.296875 1.140625 -8.109375 C 1.546875 -8.921875 2.097656 -9.546875 2.796875 -9.984375 C 3.503906 -10.421875 4.289062 -10.640625 5.15625 -10.640625 Z M 8.390625 -5.25 C 8.390625 -6.050781 8.164062 -6.679688 7.71875 -7.140625 C 7.269531 -7.609375 6.726562 -7.84375 6.09375 -7.84375 C 5.457031 -7.84375 4.914062 -7.613281 4.46875 -7.15625 C 4.019531 -6.695312 3.796875 -6.066406 3.796875 -5.265625 C 3.796875 -4.460938 4.019531 -3.828125 4.46875 -3.359375 C 4.914062 -2.890625 5.457031 -2.65625 6.09375 -2.65625 C 6.726562 -2.65625 7.269531 -2.882812 7.71875 -3.34375 C 8.164062 -3.8125 8.390625 -4.445312 8.390625 -5.25 Z M 8.390625 -5.25 "/></g></g></g><g fill="#000000" fill-opacity="1"><g transform="translate(212.520785, 30.813748)"><g><path d="M 2.78125 -11.59375 C 2.21875 -11.59375 1.753906 -11.753906 1.390625 -12.078125 C 1.035156 -12.410156 0.859375 -12.820312 0.859375 -13.3125 C 0.859375 -13.820312 1.035156 -14.238281 1.390625 -14.5625 C 1.753906 -14.894531 2.21875 -15.0625 2.78125 -15.0625 C 3.332031 -15.0625 3.785156 -14.894531 4.140625 -14.5625 C 4.503906 -14.238281 4.6875 -13.820312 4.6875 -13.3125 C 4.6875 -12.820312 4.503906 -12.410156 4.140625 -12.078125 C 3.785156 -11.753906 3.332031 -11.59375 2.78125 -11.59375 Z M 4.390625 -10.5 L 4.390625 0 L 1.171875 0 L 1.171875 -10.5 Z M 4.390625 -10.5 "/></g></g></g><g fill="#000000" fill-opacity="1"><g transform="translate(218.068598, 30.813748)"><g><path d="M 0.53125 -5.25 C 0.53125 -6.34375 0.75 -7.296875 1.1875 -8.109375 C 1.632812 -8.921875 2.253906 -9.546875 3.046875 -9.984375 C 3.847656 -10.421875 4.765625 -10.640625 5.796875 -10.640625 C 7.109375 -10.640625 8.207031 -10.296875 9.09375 -9.609375 C 9.976562 -8.921875 10.5625 -7.953125 10.84375 -6.703125 L 7.40625 -6.703125 C 7.125 -7.503906 6.566406 -7.90625 5.734375 -7.90625 C 5.148438 -7.90625 4.679688 -7.675781 4.328125 -7.21875 C 3.972656 -6.757812 3.796875 -6.101562 3.796875 -5.25 C 3.796875 -4.394531 3.972656 -3.738281 4.328125 -3.28125 C 4.679688 -2.820312 5.148438 -2.59375 5.734375 -2.59375 C 6.566406 -2.59375 7.125 -2.992188 7.40625 -3.796875 L 10.84375 -3.796875 C 10.5625 -2.566406 9.972656 -1.597656 9.078125 -0.890625 C 8.191406 -0.191406 7.097656 0.15625 5.796875 0.15625 C 4.765625 0.15625 3.847656 -0.0625 3.046875 -0.5 C 2.253906 -0.945312 1.632812 -1.578125 1.1875 -2.390625 C 0.75 -3.203125 0.53125 -4.15625 0.53125 -5.25 Z M 0.53125 -5.25 "/></g></g></g><g fill="#000000" fill-opacity="1"><g transform="translate(229.446331, 30.813748)"><g><path d="M 0.53125 -5.265625 C 0.53125 -6.347656 0.734375 -7.296875 1.140625 -8.109375 C 1.546875 -8.921875 2.097656 -9.546875 2.796875 -9.984375 C 3.503906 -10.421875 4.289062 -10.640625 5.15625 -10.640625 C 5.894531 -10.640625 6.539062 -10.488281 7.09375 -10.1875 C 7.65625 -9.894531 8.085938 -9.503906 8.390625 -9.015625 L 8.390625 -10.5 L 11.609375 -10.5 L 11.609375 0 L 8.390625 0 L 8.390625 -1.484375 C 8.078125 -0.992188 7.640625 -0.597656 7.078125 -0.296875 C 6.523438 0.00390625 5.878906 0.15625 5.140625 0.15625 C 4.285156 0.15625 3.503906 -0.0664062 2.796875 -0.515625 C 2.097656 -0.960938 1.546875 -1.597656 1.140625 -2.421875 C 0.734375 -3.242188 0.53125 -4.191406 0.53125 -5.265625 Z M 8.390625 -5.25 C 8.390625 -6.050781 8.164062 -6.679688 7.71875 -7.140625 C 7.269531 -7.609375 6.726562 -7.84375 6.09375 -7.84375 C 5.457031 -7.84375 4.914062 -7.613281 4.46875 -7.15625 C 4.019531 -6.695312 3.796875 -6.066406 3.796875 -5.265625 C 3.796875 -4.460938 4.019531 -3.828125 4.46875 -3.359375 C 4.914062 -2.890625 5.457031 -2.65625 6.09375 -2.65625 C 6.726562 -2.65625 7.269531 -2.882812 7.71875 -3.34375 C 8.164062 -3.8125 8.390625 -4.445312 8.390625 -5.25 Z M 8.390625 -5.25 "/></g></g></g><g fill="#000000" fill-opacity="1"><g transform="translate(242.215708, 30.813748)"><g/></g></g><g fill="#000000" fill-opacity="1"><g transform="translate(246.202611, 30.813748)"><g><path d="M 9.15625 -6.765625 C 9.925781 -6.609375 10.539062 -6.226562 11 -5.625 C 11.46875 -5.03125 11.703125 -4.351562 11.703125 -3.59375 C 11.703125 -2.488281 11.316406 -1.613281 10.546875 -0.96875 C 9.773438 -0.320312 8.695312 0 7.3125 0 L 1.171875 0 L 1.171875 -13.203125 L 7.109375 -13.203125 C 8.453125 -13.203125 9.503906 -12.894531 10.265625 -12.28125 C 11.023438 -11.664062 11.40625 -10.832031 11.40625 -9.78125 C 11.40625 -9 11.195312 -8.351562 10.78125 -7.84375 C 10.375 -7.332031 9.832031 -6.972656 9.15625 -6.765625 Z M 4.390625 -7.859375 L 6.484375 -7.859375 C 7.015625 -7.859375 7.421875 -7.972656 7.703125 -8.203125 C 7.984375 -8.441406 8.125 -8.785156 8.125 -9.234375 C 8.125 -9.691406 7.984375 -10.035156 7.703125 -10.265625 C 7.421875 -10.503906 7.015625 -10.625 6.484375 -10.625 L 4.390625 -10.625 Z M 6.75 -2.59375 C 7.289062 -2.59375 7.707031 -2.710938 8 -2.953125 C 8.300781 -3.203125 8.453125 -3.5625 8.453125 -4.03125 C 8.453125 -4.488281 8.296875 -4.847656 7.984375 -5.109375 C 7.679688 -5.378906 7.257812 -5.515625 6.71875 -5.515625 L 4.390625 -5.515625 L 4.390625 -2.59375 Z M 6.75 -2.59375 "/></g></g></g><g fill="#000000" fill-opacity="1"><g transform="translate(258.595844, 30.813748)"><g><path d="M 4.390625 -8.75 C 4.765625 -9.320312 5.234375 -9.773438 5.796875 -10.109375 C 6.359375 -10.441406 6.984375 -10.609375 7.671875 -10.609375 L 7.671875 -7.203125 L 6.796875 -7.203125 C 5.992188 -7.203125 5.390625 -7.03125 4.984375 -6.6875 C 4.585938 -6.34375 4.390625 -5.738281 4.390625 -4.875 L 4.390625 0 L 1.171875 0 L 1.171875 -10.5 L 4.390625 -10.5 Z M 4.390625 -8.75 "/></g></g></g><g fill="#000000" fill-opacity="1"><g transform="translate(266.64488, 30.813748)"><g><path d="M 2.78125 -11.59375 C 2.21875 -11.59375 1.753906 -11.753906 1.390625 -12.078125 C 1.035156 -12.410156 0.859375 -12.820312 0.859375 -13.3125 C 0.859375 -13.820312 1.035156 -14.238281 1.390625 -14.5625 C 1.753906 -14.894531 2.21875 -15.0625 2.78125 -15.0625 C 3.332031 -15.0625 3.785156 -14.894531 4.140625 -14.5625 C 4.503906 -14.238281 4.6875 -13.820312 4.6875 -13.3125 C 4.6875 -12.820312 4.503906 -12.410156 4.140625 -12.078125 C 3.785156 -11.753906 3.332031 -11.59375 2.78125 -11.59375 Z M 4.390625 -10.5 L 4.390625 0 L 1.171875 0 L 1.171875 -10.5 Z M 4.390625 -10.5 "/></g></g></g><g fill="#000000" fill-opacity="1"><g transform="translate(272.192693, 30.813748)"><g><path d="M 7.015625 -2.734375 L 7.015625 0 L 5.375 0 C 4.207031 0 3.296875 -0.285156 2.640625 -0.859375 C 1.992188 -1.429688 1.671875 -2.363281 1.671875 -3.65625 L 1.671875 -7.828125 L 0.390625 -7.828125 L 0.390625 -10.5 L 1.671875 -10.5 L 1.671875 -13.0625 L 4.890625 -13.0625 L 4.890625 -10.5 L 7 -10.5 L 7 -7.828125 L 4.890625 -7.828125 L 4.890625 -3.609375 C 4.890625 -3.296875 4.960938 -3.070312 5.109375 -2.9375 C 5.265625 -2.800781 5.519531 -2.734375 5.875 -2.734375 Z M 7.015625 -2.734375 "/></g></g></g><g fill="#000000" fill-opacity="1"><g transform="translate(279.828016, 30.813748)"><g><path d="M 5.9375 0.15625 C 4.914062 0.15625 3.992188 -0.0625 3.171875 -0.5 C 2.347656 -0.945312 1.703125 -1.578125 1.234375 -2.390625 C 0.765625 -3.203125 0.53125 -4.15625 0.53125 -5.25 C 0.53125 -6.320312 0.765625 -7.269531 1.234375 -8.09375 C 1.710938 -8.914062 2.363281 -9.546875 3.1875 -9.984375 C 4.019531 -10.421875 4.953125 -10.640625 5.984375 -10.640625 C 7.015625 -10.640625 7.941406 -10.421875 8.765625 -9.984375 C 9.597656 -9.546875 10.25 -8.914062 10.71875 -8.09375 C 11.195312 -7.269531 11.4375 -6.320312 11.4375 -5.25 C 11.4375 -4.164062 11.191406 -3.210938 10.703125 -2.390625 C 10.222656 -1.578125 9.566406 -0.945312 8.734375 -0.5 C 7.898438 -0.0625 6.96875 0.15625 5.9375 0.15625 Z M 5.9375 -2.640625 C 6.550781 -2.640625 7.078125 -2.863281 7.515625 -3.3125 C 7.953125 -3.757812 8.171875 -4.40625 8.171875 -5.25 C 8.171875 -6.09375 7.957031 -6.738281 7.53125 -7.1875 C 7.113281 -7.632812 6.597656 -7.859375 5.984375 -7.859375 C 5.359375 -7.859375 4.835938 -7.632812 4.421875 -7.1875 C 4.003906 -6.75 3.796875 -6.101562 3.796875 -5.25 C 3.796875 -4.40625 4 -3.757812 4.40625 -3.3125 C 4.8125 -2.863281 5.320312 -2.640625 5.9375 -2.640625 Z M 5.9375 -2.640625 "/></g></g></g></g></g></g></g></g></g></mask><clipPath id="958ab7cb33"><path d="M 0.523438 0 L 297.5 0 L 297.5 49.003906 L 0.523438 49.003906 Z M 0.523438 0 " clip-rule="nonzero"/></clipPath><clipPath id="f5ae17efd4"><rect x="0" width="298" y="0" height="50"/></clipPath><clipPath id="8235c36574"><rect x="0" width="298" y="0" height="50"/></clipPath></defs><g clip-path="url(#1fc6e4232c)"><path fill="#0313dd" d="M 17.085938 28.273438 C 15.898438 27.585938 14.347656 30.558594 13.976562 31.480469 C 13.140625 33.550781 12.503906 38.453125 10.519531 34.894531 C 9.644531 33.332031 9.050781 30.226562 8.621094 28.433594 C 7.972656 25.746094 4.863281 17.890625 7.816406 14.835938 C 8.144531 14.5 8.710938 13.808594 9.257812 13.671875 C 12.398438 12.878906 16.042969 15.773438 17.421875 16.148438 C 18.386719 16.410156 18.859375 16.484375 19.992188 16.484375 C 19.746094 16.082031 19.105469 15.921875 18.632812 15.730469 C 17.535156 15.285156 15.757812 14.0625 14.730469 13.386719 C 10.878906 10.835938 5.566406 11.558594 4.953125 17.402344 C 4.746094 19.382812 5.417969 23.074219 6.007812 24.644531 C 7.246094 27.953125 7.792969 31.363281 8.867188 34.121094 C 10.207031 37.570312 13.03125 39.609375 14.410156 33.945312 C 14.976562 31.605469 15.511719 29.628906 17.085938 28.273438 Z M 17.085938 28.273438 " fill-opacity="1" fill-rule="evenodd"/></g><g clip-path="url(#ff20927ff9)"><path fill="#0313dd" d="M 14.410156 25.730469 C 14.84375 26.210938 15.300781 25.710938 16.503906 26.496094 C 19.324219 28.34375 19.683594 33.328125 21.464844 36.160156 C 22.601562 37.964844 24.742188 36.523438 25.527344 35.105469 C 25.691406 34.875 25.851562 34.546875 26 34.175781 L 26.003906 34.175781 C 26.417969 33.140625 26.746094 31.765625 26.847656 31.226562 C 27.148438 29.660156 27.554688 28.140625 27.984375 26.625 C 28.808594 23.703125 30.421875 21.113281 30.414062 17.632812 C 30.402344 11.550781 25.96875 10.355469 21.457031 12.5 L 19.667969 13.351562 C 19.234375 13.511719 17.925781 13.800781 17.714844 14.042969 C 19.121094 14.835938 22.542969 12.496094 25.78125 12.949219 C 26.265625 13.015625 27.015625 13.476562 27.28125 13.734375 C 27.386719 13.835938 28.207031 15.027344 28.273438 15.164062 C 29.207031 17.113281 28.628906 20.976562 27.589844 23.277344 L 26.542969 27.046875 C 26.269531 28.277344 26.152344 29.855469 25.984375 31.183594 L 25.492188 33.84375 C 24.933594 36.851562 23.023438 37.15625 21.914062 34.234375 C 21.0625 32.003906 20.082031 28.1875 18.46875 26.660156 C 17.59375 25.832031 16.003906 24.753906 14.410156 25.730469 Z M 14.410156 25.730469 " fill-opacity="1" fill-rule="evenodd"/></g><path fill="#0313dd" d="M 9.082031 25.710938 C 9.761719 25.023438 6.730469 15.988281 11.429688 15.449219 L 12.15625 15.265625 C 12.1875 15.25 12.234375 15.226562 12.265625 15.199219 C 5.527344 13.484375 8.449219 22.820312 9.082031 25.710938 Z M 9.082031 25.710938 " fill-opacity="1" fill-rule="evenodd"/><g clip-path="url(#c87ec5ff9e)"><g transform="matrix(1, 0, 0, 1, 1, 0)"><g clip-path="url(#8235c36574)"><g clip-path="url(#ce92bfc8fa)"><g mask="url(#8e8c990abb)"><g><g clip-path="url(#f5ae17efd4)"><g clip-path="url(#958ab7cb33)"><path fill="url(#76ff4b6948)" d="M 0.523438 0 L 0.523438 49.003906 L 297.5 49.003906 L 297.5 0 Z M 0.523438 0 " fill-rule="nonzero"/></g></g></g></g></g></g></g></g></svg>